<svg height="39.67263mm" viewBox="0 0 39.6875 39.67263" width="39.6875mm" xmlns="http://www.w3.org/2000/svg"><path d="m0 0c-.019.014-.027.037-.023.06.088.4.291 1.254.47 1.513.289.416.599.554.889.351.292-.202.27-.539-.018-.955-.18-.26-.908-.747-1.254-.971-.019-.011-.044-.012-.064.002m-3.363-.002c-.346.224-1.074.711-1.255.971-.289.416-.31.753-.019.955.292.203.602.065.891-.351.18-.259.381-1.113.469-1.513.004-.023-.004-.046-.024-.06-.019-.014-.044-.013-.062-.002m3.363 5.246c-.019.014-.027.037-.023.059.088.402.291 1.255.47 1.514.289.415.599.554.889.352.292-.203.27-.54-.018-.956-.18-.261-.908-.746-1.254-.97-.019-.012-.044-.012-.064.001m-3.363-.001c-.346.224-1.074.709-1.255.97-.289.416-.31.753-.019.956.292.202.602.063.891-.352.18-.259.381-1.112.469-1.514.004-.022-.004-.045-.024-.059-.019-.013-.044-.013-.062-.001m12.231-3.527c-.38.157-1.183.505-1.407.727-.359.359-.44.687-.191.938.252.251.58.171.938-.187.225-.222.575-1.025.734-1.403.008-.02.004-.047-.012-.063s-.04-.02-.062-.012m3.124-.18c-.017.019-.021.045-.012.067.186.403.594 1.254.844 1.487.4.372.756.446 1.017.165.261-.28.161-.631-.239-1.002-.25-.232-1.128-.578-1.543-.732-.024-.009-.049-.003-.067.015m-1.572 3.661c-.026 0-.048.016-.057.037-.169.409-.514 1.289-.514 1.63 0 .545.189.858.571.858.383 0 .571-.313.571-.858 0-.341-.346-1.221-.514-1.63-.009-.021-.032-.037-.057-.037m-22.588-3.481c.381.157 1.184.505 1.407.727.36.359.441.687.19.938-.25.251-.578.171-.937-.187-.224-.222-.576-1.025-.734-1.403-.008-.023-.004-.047.012-.063.017-.016.041-.02.062-.012m-3.123-.18c.018.019.021.045.01.067-.184.403-.592 1.254-.842 1.487-.4.372-.757.446-1.018.165-.26-.28-.16-.631.24-1.002.249-.232 1.128-.578 1.544-.732.022-.009.048-.003.066.015m1.572 3.661c.026 0 .047.016.056.037.17.409.515 1.289.515 1.63 0 .545-.189.858-.571.858-.383 0-.571-.313-.571-.858 0-.341.345-1.221.514-1.63.009-.021.031-.037.057-.037m12.008 4.811c-.165.4-.503 1.258-.503 1.591 0 .531.185.836.558.836s.558-.305.558-.836c0-.333-.338-1.191-.504-1.591-.007-.022-.029-.037-.054-.037s-.047.015-.055.037m-.44-5.378-.001.001zm1.003.001v-.001zm.933-.174-.002-.001zm-2.867-.001h-.001l-.001.001zm1.301-27.458c-.024 2.263-.05 5.547-.074 8.734-1.076-.386-1.835-1.647-1.942-3.737-.073-1.461.174-2.886.661-4.12.066-.164.21-.442.135-.482-.076-.039-.245.222-.322.382-.495 1.035-.864 2.473-.818 4.306.047 1.947.748 3.775 2.284 4.171-.005.598-.009 1.19-.013 1.769-1.688-.398-3.103-1.758-3.667-3.999-.391-1.553-.352-3.087.133-4.402.061-.165.154-.461.073-.485-.082-.026-.208.265-.277.428-.471 1.095-.642 2.634-.229 4.573.44 2.078 1.776 4.035 3.964 4.426-.005.628-.009 1.24-.013 1.821-2.404-.605-4.3-1.97-5.178-4.911-.512-1.711-.467-3.36.1-4.808.065-.164.141-.467.061-.495-.081-.028-.189.264-.261.427-.599 1.337-.663 3.149-.214 4.976.601 2.434 2.449 4.772 5.489 5.417-.006.678-.009 1.31-.012 1.875-2.904-.666-4.928-2.148-6.232-4.877-.82-1.714-1.098-3.395-.73-4.927.04-.171.128-.472.047-.496-.082-.027-.196.263-.25.431-.46 1.41-.191 3.297.602 5.175 1.008 2.387 3.316 4.68 6.56 5.311-.003.505-.005.941-.006 1.29-.324.055-.637.211-.875.47-4.497-1.583-8.192-5.762-8.192-10.864 0-1.516.618-2.312 2.143-3.046-.002-.017-.153-1.695.997-2.638 1.153-.943 2.623-1.039 2.638-1.039l.012-.001c.339-1.542 2.054-2.257 3.531-2.257 1.476 0 3.191.715 3.531 2.257l.012.001c.015 0 1.485.096 2.637 1.039 1.151.943.999 2.621.998 2.638 1.525.734 2.142 1.53 2.142 3.046 0 5.102-3.694 9.281-8.19 10.864-.24-.259-.552-.415-.875-.47-.001-.349-.004-.785-.006-1.29 3.243-.631 5.55-2.924 6.557-5.311.794-1.878 1.063-3.765.604-5.175-.055-.168-.168-.458-.249-.431-.081.024.005.325.047.496.366 1.532.089 3.213-.732 4.927-1.302 2.729-3.326 4.211-6.231 4.877-.004-.565-.007-1.197-.012-1.875 3.039-.645 4.889-2.983 5.488-5.417.45-1.827.386-3.639-.213-4.976-.072-.163-.18-.455-.261-.427-.079.028-.004.331.061.495.567 1.448.612 3.097.1 4.808-.879 2.941-2.774 4.306-5.178 4.911-.004-.581-.008-1.193-.011-1.821 2.185-.391 3.52-2.348 3.962-4.426.413-1.939.242-3.478-.229-4.573-.069-.163-.195-.454-.277-.428-.082.024.011.32.073.485.485 1.315.524 2.849.133 4.402-.565 2.241-1.979 3.601-3.666 3.999-.005-.579-.009-1.171-.013-1.769 1.536-.396 2.235-2.224 2.282-4.171.046-1.833-.321-3.271-.816-4.306-.077-.16-.247-.421-.323-.382-.075.04.069.318.134.482.488 1.234.736 2.659.66 4.12-.105 2.09-.864 3.351-1.942 3.737-.022-3.187-.049-6.471-.072-8.734-.008-.719-.051-.832-.125-.832-.075 0-.117.113-.125.832m3.028 19.132c-.576.086-.969.109-1.372.117-.004-.206-.051-.408-.136-.599.609-.22 1.203-.487 1.778-.798-.168.502-.271 1.041-.27 1.28m2.639-2.921c-.163.489-.247.977-.244 1.441.003.473.096.777.14.895-.791.269-1.336.388-1.998.5-.002-.204.021-1.047.271-1.504.645-.39 1.259-.836 1.831-1.332m-8.714 1.641c.572.311 1.168.578 1.777.798-.086.191-.132.393-.137.599-.404-.008-.794-.031-1.373-.117.003-.239-.099-.778-.267-1.28m9.226-2.111c2.227-2.151 3.704-5.105 3.704-8.439l.226-.047c.33-.07.672-.144.996-.144.629 0 1.461.445 1.469.451l.006.001.006-.001c.758-.265 2.537-.886 4.247.504 1.672 1.36 1.253 3.433 1.248 3.454l-.003.015.014.001c1.373.163 2.05 1.46 2.05 2.847 0 1.367-.244 1.961-1.435 2.79.353.691.406 1.23.226 1.998-.578 2.479-4.941 4.696-10.445 4.458-1.965-.085-3.721-.64-5.238-1.486-1.204-.674-1.906-1.38-2.159-1.663.248-.205.423-.476.507-.785.39-.004.83-.016 1.538-.123.162.169.625.604 1.543 1.121 1.111.626 2.922 1.362 5.247 1.319 1.074-.02 2.173-.228 3.27-.619 1.012-.362 1.832-.813 2.343-1.128 1.123-.696 1.786-1.427 1.963-1.635.003-.005.006-.007.007-.008.022-.024.123-.152.214-.286.18-.26.152-.286.138-.299-.006-.006-.014-.009-.024-.007-.098.005-.468.372-.49.397-.028.03-2.854 3.049-7.297 3.131-3.598.065-5.585-1.415-6.291-2.078.645-.113 1.235-.27 2.025-.54.064.04.757.469 1.811.794.594.184 1.193.301 1.779.349.724.058 1.422.042 2.141-.134 1.026-.249 1.872-.569 2.762-1.059.673-.371 1.479-.946 2.1-1.488.973-.848 1.557-1.689 1.713-1.925.002-.004.005-.008.006-.01.022-.032.122-.194.207-.352.174-.321.144-.345.126-.357-.004-.003-.011-.008-.023-.005-.102.017-.256.197-.26.202-.118.181-2.321 3.55-6.543 4.578-1.134.276-2.231.213-3.38-.077-.948-.239-1.641-.593-1.92-.75.726-.269 1.251-.515 1.929-.9.074.044.395.222.924.351.604.148 1.236.171 1.88.073.639-.097 1.253-.271 1.825-.519.568-.246 1.112-.572 1.619-.969.999-.781 1.897-1.879 2.671-3.262.02-.032.08-.204.129-.367.099-.335.063-.355.05-.363-.005-.003-.013-.004-.024-.001-.052.014-.184.209-.39.579l-.008.014c-1.503 2.685-3.354 4.111-5.823 4.486-1.281.195-2.136-.155-2.401-.285.671-.402 1.163-.758 1.807-1.307.422.089.87.076 1.336-.042.786-.198 1.579-.682 2.355-1.437.881-.857 1.562-1.914 1.968-3.06.325-.912.364-1.561.364-1.567s.013-.52-.083-.525c-.01 0-.02.003-.029.012-.059.052-.077.312-.082.391-.004.094-.136 2.321-2.159 4.289-1.531 1.489-2.727 1.592-3.2 1.558.03-.027.061-.059.092-.092.036-.036.071-.072.101-.102 1.693-1.561 3.043-3.575 4.249-6.337.014-.031.119-.294.213-.551.188-.521.156-.535.136-.544-.021-.009-.053-.023-.295.454-.115.224-.23.465-.251.514-1.233 2.671-2.733 4.764-4.585 6.397.027-.567.138-1.665.579-2.877.593-1.629 1.569-2.921 2.9-3.84.028-.019.169-.125.302-.237.263-.221.242-.252.231-.269-.003-.004-.009-.01-.02-.012-.098-.018-.601.293-.633.317-.875.603-1.633 1.376-2.251 2.297-.608.906-.951 1.761-1.131 2.319-.438 1.363-.423 2.251-.373 2.659.001.012.003.021.003.025-.645.54-1.136.831-1.752 1.196-.748-2.873 1.588-6.339 3.396-8.195.003-.004.374-.415.305-.483-.006-.006-.015-.01-.027-.01-.096 0-.412.279-.455.317-1.144 1.039-2.371 2.766-3.063 4.512-.679 1.707-.863 3.019-.582 4.129-.739.419-1.28.671-1.983.925-.272-.73-.229-1.656.112-2.626m-11.996 2.626c-.703-.254-1.244-.506-1.984-.925.281-1.11.098-2.422-.58-4.129-.694-1.746-1.922-3.473-3.065-4.512-.042-.038-.359-.317-.454-.317-.012 0-.022.004-.028.01-.067.068.302.479.306.483 1.806 1.856 4.142 5.322 3.395 8.195-.615-.365-1.105-.656-1.751-1.196 0-.004.001-.013.001-.025.051-.408.068-1.296-.372-2.659-.179-.558-.521-1.413-1.131-2.319-.618-.921-1.375-1.694-2.25-2.297-.032-.024-.536-.335-.633-.317-.011.002-.016.008-.02.012-.011.017-.031.048.23.269.133.112.275.218.301.237 1.333.919 2.309 2.211 2.902 3.84.44 1.212.551 2.31.579 2.877-1.853-1.633-3.353-3.726-4.585-6.397-.022-.049-.136-.29-.251-.514-.243-.477-.275-.463-.295-.454s-.053.023.136.544c.094.257.199.52.213.551 1.205 2.762 2.555 4.776 4.248 6.337.031.03.066.066.101.102.03.033.062.065.092.092-.473.034-1.667-.069-3.198-1.558-2.025-1.968-2.157-4.195-2.161-4.289-.004-.079-.023-.339-.082-.391-.008-.009-.019-.012-.03-.012-.095.005-.083.519-.081.525 0 .006.039.655.363 1.567.408 1.146 1.087 2.203 1.968 3.06.776.755 1.569 1.239 2.357 1.437.464.118.914.131 1.334.042.644.549 1.137.905 1.806 1.307-.263.13-1.119.48-2.398.285-2.471-.375-4.322-1.801-5.824-4.486l-.007-.014c-.206-.37-.338-.565-.393-.579-.009-.003-.017-.002-.021.001-.015.008-.05.028.049.363.049.163.111.335.128.367.774 1.383 1.672 2.481 2.671 3.262.507.397 1.051.723 1.62.969.573.248 1.186.422 1.825.519.644.098 1.275.075 1.878-.073.532-.129.852-.307.925-.351.678.385 1.203.631 1.929.9-.278.157-.973.511-1.919.75-1.148.29-2.247.353-3.382.077-4.221-1.028-6.423-4.397-6.542-4.578-.004-.005-.158-.185-.259-.202-.012-.003-.02.002-.025.005-.016.012-.047.036.128.357.084.158.185.32.206.352.001.002.003.006.007.01.155.236.738 1.077 1.714 1.925.622.542 1.426 1.117 2.098 1.488.891.49 1.737.81 2.762 1.059.719.176 1.418.192 2.142.134.586-.048 1.184-.165 1.777-.349 1.057-.325 1.749-.754 1.813-.794.79.27 1.379.427 2.025.54-.706.663-2.693 2.143-6.292 2.078-4.441-.082-7.268-3.101-7.295-3.131-.021-.025-.393-.392-.491-.397-.01-.002-.018.001-.024.007-.014.013-.042.039.137.299.093.134.191.262.215.286 0 0 .003.003.007.008.177.208.841.939 1.963 1.635.51.315 1.331.766 2.342 1.128 1.097.391 2.197.599 3.271.619 2.324.043 4.136-.693 5.246-1.319.918-.517 1.383-.952 1.543-1.121.709.107 1.149.119 1.539.123.084.309.259.58.508.785-.255.283-.956.989-2.16 1.663-1.517.846-3.274 1.401-5.238 1.486-5.504.238-9.867-1.979-10.445-4.458-.18-.768-.128-1.307.226-1.998-1.192-.829-1.436-1.423-1.436-2.79 0-1.387.679-2.684 2.049-2.847l.016-.001-.003-.015c-.005-.021-.424-2.094 1.249-3.454 1.71-1.39 3.487-.769 4.246-.504l.007.001.004-.001c.009-.006.84-.451 1.47-.451.323 0 .666.074.997.144 0 0 .225.047.227.047 0 3.334 1.473 6.288 3.701 8.439.343.97.385 1.896.113 2.626m5.942-.215c.627 0 1.134.509 1.134 1.135 0 .627-.507 1.135-1.134 1.135-.626 0-1.135-.508-1.135-1.135 0-.626.509-1.135 1.135-1.135m10.914 5.816c.592-.024 1.75-.205 2.254-.359.649.338.877.38 1.864.37.863-.01 1.757-.019 2.523.673.397.36.581.721.548 1.078-.052.553-.617.907-.623.91l-.016.01.014.013c.005.003.463.399.482.894.01.25-.093.484-.308.697v.001c-.949.847-1.919-.104-1.929-.114l-.012-.012-.01.014c-.002.005-.345.478-.891.518-.394.027-.798-.173-1.197-.597-.793-.836-.785-1.787-.781-2.552.003-.414.006-.773-.135-.996-.117-.189-.256-.469-.258-.473l-.026.008c0 .027.049 2.768.153 3.229.136.607.526 1.008.939 1.431.515.53 1.049 1.077 1.108 2.077.032.564-.098.98-.384 1.235-.425.379-1.055.273-1.061.273l-.02-.005.002.021c.002.005.087.708-.282 1.128-.184.208-.449.314-.79.314h-.002c-.34 0-.606-.106-.79-.314-.368-.42-.282-1.123-.282-1.128l.003-.021-.019.005c-.007 0-.638.106-1.063-.273-.287-.255-.416-.671-.382-1.235.057-1 .59-1.547 1.105-2.077.414-.423.805-.824.941-1.431.103-.461.141-3.021.141-3.047l-.028-.002s-.024.14-.289.472c-.163.203-.158.555-.154.997.007.716.018 1.605-.659 2.367-.343.388-.699.577-1.057.562-.535-.024-.896-.502-.899-.507l-.011-.016-.012.016c-.004.005-.4.513-.918.554-.262.019-.512-.081-.744-.302l-.002-.002c-.231-.22-.341-.461-.328-.717.026-.51.539-.91.543-.914l.015-.012-.015-.011c-.006-.003-.504-.345-.54-.869-.026-.349.159-.701.544-1.045.692-.617 1.427-.574 2.138-.531.972.057 1.302-.008 1.6-.305m-6.117 1.677-.016.008.013.013c.003.006.44.526.366 1.053-.036.257-.187.473-.446.645l-.003.002c-.266.175-.53.232-.784.165-.503-.132-.805-.704-.809-.711l-.009-.015-.013.011c-.004.005-.462.426-.999.347-.351-.053-.661-.304-.918-.747-.466-.807-.429-1.881-.401-2.744.015-.412.026-.768-.024-.996-.015-.065-.221-.25-.246-.272 0-.001-.077-.068-.077-.158h-.029v3.092c0 .026-.002.055-.004.088-.009.159-.023.399.116.925.165.629.911 1.098.925 1.107.453.38 1.026.492 1.63.61.731.144 1.486.291 2.017.952.29.362.403.713.338 1.042-.103.518-.623.809-.627.81l-.016.01.013.013c.003.005.44.527.366 1.053-.036.255-.187.473-.446.645l-.003.001c-.266.176-.53.231-.784.166-.503-.131-.805-.704-.809-.709l-.009-.018-.013.013c-.004.005-.481.438-1.025.351-.346-.056-.646-.309-.892-.752-.462-.838-.432-2.101-.412-2.935.01-.406.018-.726-.029-.88-.019-.062-.205-.182-.23-.197-.003-.003-.077-.07-.077-.158h-.029l-.015 3.101c.001.01.039.958.143 1.42.137.605.526 1.005.939 1.43.515.529 1.05 1.077 1.108 2.076.032.564-.097.979-.384 1.236-.424.378-1.056.273-1.061.272l-.019-.005.002.02c.001.007.085.67-.271 1.077-.184.21-.454.316-.801.316h-.003-.068-.003c-.347 0-.617-.106-.8-.316-.357-.407-.272-1.07-.271-1.077l.002-.02-.018.005c-.007.001-.638.106-1.062-.272-.288-.257-.417-.672-.384-1.236.058-.999.591-1.547 1.108-2.076.413-.425.802-.825.939-1.43.103-.462.142-1.41.142-1.421l-.014-3.1h-.028c0 .088-.075.155-.079.158-.024.015-.21.135-.23.197-.048.154-.04.474-.028.88.019.834.05 2.097-.413 2.935-.245.443-.544.696-.892.752-.543.087-1.019-.346-1.024-.351l-.014-.013-.009.018c-.004.005-.304.578-.808.709-.254.065-.519.01-.785-.166l-.001-.001c-.261-.172-.411-.39-.448-.645-.074-.526.363-1.048.367-1.053l.011-.013-.014-.01c-.005-.001-.525-.292-.626-.81-.067-.329.046-.68.336-1.042.531-.661 1.287-.808 2.016-.952.607-.118 1.179-.23 1.631-.61.015-.009.76-.478.926-1.107.138-.526.125-.766.115-.925-.002-.033-.003-.062-.003-.088v-3.092h-.028c0 .09-.078.157-.079.158-.024.022-.231.207-.246.272-.05.228-.039.584-.025.996.03.863.067 1.937-.4 2.744-.256.443-.566.693-.917.747-.537.079-.994-.342-.999-.347l-.014-.011-.009.015c-.004.007-.304.579-.808.711-.254.067-.519.01-.785-.165l-.001-.002c-.261-.172-.411-.388-.448-.645-.074-.527.363-1.047.367-1.053l.011-.013-.014-.008c-.005-.004-.525-.293-.626-.812-.067-.329.046-.68.336-1.042.531-.66 1.287-.808 2.016-.951.607-.118 1.179-.231 1.631-.61.015-.009.76-.479.926-1.108 0-.002.048-.188.078-.352.156.046.292.067.426.067s.277-.023.433-.069c.029.165.078.352.078.354.165.629.911 1.099.925 1.108.453.379 1.026.492 1.631.61.73.143 1.485.291 2.016.951.29.362.403.713.338 1.042-.103.519-.623.808-.627.812m-3.356-3.415h-.002zm-2.867 0h-.001-.001zm-2.286-4.687c.252.457.273 1.3.271 1.504-.662-.112-1.206-.231-1.998-.5.045-.118.138-.422.141-.895.005-.464-.081-.952-.244-1.441.572.496 1.185.942 1.83 1.332m-7.189 6.425c-.591-.024-1.75-.205-2.254-.359-.65.338-.877.38-1.865.37-.863-.01-1.757-.019-2.523.673-.396.36-.58.721-.547 1.078.051.553.617.907.623.91l.017.01-.015.013c-.005.003-.463.399-.483.894-.009.25.094.484.307.697l.002.001c.949.847 1.919-.104 1.928-.114l.012-.012.01.014c.003.005.345.478.892.518.394.027.797-.173 1.197-.597.792-.836.785-1.787.78-2.552-.002-.414-.005-.773.136-.996.117-.189.256-.469.258-.473l.026.008c-.001.027-.05 2.768-.153 3.229-.136.607-.526 1.006-.939 1.431-.517.53-1.049 1.077-1.108 2.077-.033.564.096.98.384 1.235.424.379 1.056.273 1.061.273l.02-.005-.002.021c-.002.005-.087.708.281 1.128.184.208.449.314.79.314h.003c.34 0 .606-.106.789-.314.369-.42.283-1.123.283-1.128l-.002-.021.018.005c.006 0 .638.106 1.063-.273.287-.255.416-.671.382-1.235-.057-1-.59-1.547-1.107-2.077-.413-.423-.804-.824-.938-1.431-.105-.461-.143-3.021-.143-3.047l.027-.002s.026.14.291.472c.162.203.158.555.154.997-.008.716-.018 1.605.659 2.367.342.388.698.577 1.057.562.536-.024.896-.502.899-.507l.012-.016.01.016c.004.005.401.513.919.554.262.019.512-.082.744-.302v-.002c.233-.22.343-.461.329-.717-.026-.51-.538-.91-.542-.914l-.016-.012.017-.011c.005-.003.503-.345.54-.869.024-.349-.16-.701-.546-1.045-.692-.617-1.427-.574-2.139-.531-.971.057-1.3-.008-1.598-.305" fill="#56479f" transform="matrix(.99132009 0 0 -.99132009 21.485872 15.28219)"/></svg>