<svg clip-rule="evenodd" fill-rule="evenodd" height="800" stroke-linejoin="round" stroke-miterlimit="2" width="800" xmlns="http://www.w3.org/2000/svg"><path d="m781.365 748.047-243.436-243.435c45.883-53.506 73.836-122.824 73.836-198.73 0-168.658-137.224-305.882-305.883-305.882-81.741 0-158.541 31.812-216.329 89.6-57.788 57.741-89.553 134.588-89.553 216.282 0 168.659 137.224 305.883 305.882 305.883 75.859 0 145.224-27.953 198.777-73.836l243.435 243.436zm-475.483-183.341c-142.729 0-258.823-116.094-258.823-258.824 0-69.176 26.87-134.164 75.765-183.058 48.894-48.848 113.882-75.765 183.058-75.765 142.73 0 258.824 116.094 258.824 258.823 0 142.73-116.094 258.824-258.824 258.824z" fill-rule="nonzero"/></svg>