<?xml version="1.0" encoding="UTF-8" standalone="no"?>
<!DOCTYPE svg PUBLIC "-//W3C//DTD SVG 1.1//EN" "http://www.w3.org/Graphics/SVG/1.1/DTD/svg11.dtd">
<svg width="800px" height="800px" version="1.1" xmlns="http://www.w3.org/2000/svg" xmlns:xlink="http://www.w3.org/1999/xlink" xml:space="preserve" xmlns:serif="http://www.serif.com/" style="fill-rule:evenodd;clip-rule:evenodd;stroke-linejoin:round;stroke-miterlimit:2;">
    <path d="M398.071,155.082L718.894,715.882L80.824,715.882L398.071,155.082Z" style="fill:#f2bf49;fill-rule:nonzero;"/>
    <path d="M397.835,70.212L9.976,752.941L790.259,752.941L397.835,70.212ZM398.071,165.082L708.894,705.882L90.824,705.882L398.071,165.082ZM423.529,514.729L376.471,514.729L376.471,329.412L423.529,329.412L423.529,514.729ZM447.059,613.224C447.059,639.2 426.024,660.282 400,660.282C373.976,660.282 352.941,639.2 352.941,613.224C352.941,587.247 373.976,566.165 400,566.165C426.024,566.165 447.059,587.247 447.059,613.224Z" style="fill-rule:nonzero;"/>
</svg>
